<svg xmlns="http://www.w3.org/2000/svg" width="24" height="25" viewBox="0 0 24 25" fill="none">
<path d="M21.0282 14.5909C20.9799 14.4351 20.8826 14.299 20.7509 14.2028C20.6192 14.1065 20.46 14.0553 20.2969 14.0565L20.0907 14.094C18.7479 14.4647 17.3308 14.4725 15.9839 14.1167C14.6371 13.7609 13.4088 13.0542 12.4243 12.0687C11.4397 11.0832 10.7342 9.85416 10.3797 8.507C10.0252 7.15984 10.0344 5.74275 10.4063 4.40029C10.4247 4.34592 10.4342 4.28894 10.4344 4.23154C10.4433 4.11056 10.4224 3.98923 10.3734 3.87824C10.3245 3.76724 10.249 3.66997 10.1536 3.59498C10.0583 3.51999 9.94594 3.46957 9.82653 3.44815C9.70712 3.42674 9.58428 3.43499 9.4688 3.47217C7.89269 3.91394 6.45971 4.76067 5.3124 5.92814C4.1651 7.09562 3.34346 8.54313 2.92921 10.1267C2.51496 11.7103 2.52255 13.3747 2.95122 14.9544C3.37988 16.5342 4.21469 17.9741 5.37259 19.1311C6.53049 20.288 7.97113 21.1217 9.55121 21.5491C11.1313 21.9765 12.7957 21.9827 14.379 21.5672C15.9622 21.1516 17.409 20.3288 18.5756 19.1806C19.7421 18.0323 20.5877 16.5986 21.0282 15.0222C21.0753 14.8823 21.0753 14.7308 21.0282 14.5909ZM12.0001 20.3753C10.2038 20.3767 8.46107 19.7641 7.06089 18.6389C5.66071 17.5138 4.68726 15.9437 4.302 14.1893C3.91675 12.4349 4.14285 10.6015 4.9428 8.99318C5.74275 7.38491 7.06847 6.09844 8.70005 5.34717C8.52352 6.76206 8.67237 8.19858 9.13527 9.54722C9.59817 10.8959 10.3629 12.121 11.3711 13.1292C12.3794 14.1375 13.6045 14.9022 14.9531 15.3651C16.3018 15.828 17.7383 15.9768 19.1532 15.8003C18.5189 17.1638 17.5091 18.3183 16.2423 19.1286C14.9754 19.9388 13.5039 20.3713 12.0001 20.3753Z" fill="#17181A"/>
</svg>