<svg xmlns="http://www.w3.org/2000/svg" width="24" height="25" viewBox="0 0 24 25" fill="none">
<path d="M12 17.5C10.6167 17.5 9.43767 17.0123 8.463 16.037C7.48767 15.0623 7 13.8833 7 12.5C7 11.1167 7.48767 9.93733 8.463 8.962C9.43767 7.98733 10.6167 7.5 12 7.5C13.3833 7.5 14.5627 7.98733 15.538 8.962C16.5127 9.93733 17 11.1167 17 12.5C17 13.8833 16.5127 15.0623 15.538 16.037C14.5627 17.0123 13.3833 17.5 12 17.5ZM2 13.5C1.71667 13.5 1.47933 13.404 1.288 13.212C1.096 13.0207 1 12.7833 1 12.5C1 12.2167 1.096 11.979 1.288 11.787C1.47933 11.5957 1.71667 11.5 2 11.5H4C4.28333 11.5 4.521 11.5957 4.713 11.787C4.90433 11.979 5 12.2167 5 12.5C5 12.7833 4.90433 13.0207 4.713 13.212C4.521 13.404 4.28333 13.5 4 13.5H2ZM20 13.5C19.7167 13.5 19.4793 13.404 19.288 13.212C19.096 13.0207 19 12.7833 19 12.5C19 12.2167 19.096 11.979 19.288 11.787C19.4793 11.5957 19.7167 11.5 20 11.5H22C22.2833 11.5 22.5207 11.5957 22.712 11.787C22.904 11.979 23 12.2167 23 12.5C23 12.7833 22.904 13.0207 22.712 13.212C22.5207 13.404 22.2833 13.5 22 13.5H20ZM12 5.5C11.7167 5.5 11.4793 5.404 11.288 5.212C11.096 5.02067 11 4.78333 11 4.5V2.5C11 2.21667 11.096 1.979 11.288 1.787C11.4793 1.59567 11.7167 1.5 12 1.5C12.2833 1.5 12.521 1.59567 12.713 1.787C12.9043 1.979 13 2.21667 13 2.5V4.5C13 4.78333 12.9043 5.02067 12.713 5.212C12.521 5.404 12.2833 5.5 12 5.5ZM12 23.5C11.7167 23.5 11.4793 23.404 11.288 23.212C11.096 23.0207 11 22.7833 11 22.5V20.5C11 20.2167 11.096 19.9793 11.288 19.788C11.4793 19.596 11.7167 19.5 12 19.5C12.2833 19.5 12.521 19.596 12.713 19.788C12.9043 19.9793 13 20.2167 13 20.5V22.5C13 22.7833 12.9043 23.0207 12.713 23.212C12.521 23.404 12.2833 23.5 12 23.5ZM5.65 7.55L4.575 6.5C4.375 6.31667 4.279 6.08333 4.287 5.8C4.29567 5.51667 4.39167 5.275 4.575 5.075C4.775 4.875 5.01667 4.775 5.3 4.775C5.58333 4.775 5.81667 4.875 6 5.075L7.05 6.15C7.23333 6.35 7.325 6.58333 7.325 6.85C7.325 7.11667 7.23333 7.35 7.05 7.55C6.86667 7.75 6.63767 7.84567 6.363 7.837C6.08767 7.829 5.85 7.73333 5.65 7.55ZM18 19.925L16.95 18.85C16.7667 18.65 16.675 18.4127 16.675 18.138C16.675 17.8627 16.7667 17.6333 16.95 17.45C17.1333 17.25 17.3627 17.1543 17.638 17.163C17.9127 17.171 18.15 17.2667 18.35 17.45L19.425 18.5C19.625 18.6833 19.721 18.9167 19.713 19.2C19.7043 19.4833 19.6083 19.725 19.425 19.925C19.225 20.125 18.9833 20.225 18.7 20.225C18.4167 20.225 18.1833 20.125 18 19.925ZM16.95 7.55C16.75 7.36667 16.6543 7.13733 16.663 6.862C16.671 6.58733 16.7667 6.35 16.95 6.15L18 5.075C18.1833 4.875 18.4167 4.779 18.7 4.787C18.9833 4.79567 19.225 4.89167 19.425 5.075C19.625 5.275 19.725 5.51667 19.725 5.8C19.725 6.08333 19.625 6.31667 19.425 6.5L18.35 7.55C18.15 7.73333 17.9167 7.825 17.65 7.825C17.3833 7.825 17.15 7.73333 16.95 7.55ZM4.575 19.925C4.375 19.725 4.275 19.4833 4.275 19.2C4.275 18.9167 4.375 18.6833 4.575 18.5L5.65 17.45C5.85 17.2667 6.08767 17.175 6.363 17.175C6.63767 17.175 6.86667 17.2667 7.05 17.45C7.25 17.6333 7.346 17.8627 7.338 18.138C7.32933 18.4127 7.23333 18.65 7.05 18.85L6 19.925C5.81667 20.125 5.58333 20.2207 5.3 20.212C5.01667 20.204 4.775 20.1083 4.575 19.925Z" fill="white"/>
</svg>